# xmcd
#
# Track frame offsets:
# 183
# 58158
# 86770
# 96588
# 103383
# 130670
# 153008
#
# Disc length: 2682 seconds
#
#
# Revision: 2
# Processed by: cddbd v1.5.1PL2 Copyright (c) Steve Scherf et al.
# Submitted via: FreeRIP 2.942 
#
DISCID=5b0a7807
DTITLE=Stevie Ray Vaughan And Double Trouble - Jammed Together - Texas Style
DYEAR=1992
DGENRE=Bluesrock
TTITLE0=Texas Flood - Stormy Monday
TTITLE1=Matchbox Blues
TTITLE2=Instrumental Jam I
TTITLE3=Instrumental Jam II
TTITLE4=Pride and Joy
TTITLE5=Ask Me No Questions
TTITLE6=Outskirts of Town
EXTD=
EXTT0=
EXTT1=
EXTT2=
EXTT3=
EXTT4=
EXTT5=
EXTT6=
PLAYORDER=
